<svg xmlns="http://www.w3.org/2000/svg" version="1.0" preserveAspectRatio="xMidYMid meet" viewBox="24 30 684 241">

<g transform="translate(0.000000,298.000000) scale(0.100000,-0.100000)" fill="#000000" stroke="none">
<path d="M625 2656 c-9 -13 -27 -27 -40 -30 -28 -7 -81 -50 -98 -80 -9 -15 -13 -130 -17 -416 l-5 -395 -72 -6 c-59 -4 -78 -10 -99 -30 -56 -52 -54 -33 -54 -639 0 -532 1 -563 19 -598 21 -42 52 -62 108 -71 35 -6 38 -9 44 -46 6 -39 38 -75 66 -75 28 0 63 47 63 85 l0 35 230 0 c127 0 230 -3 231 -7 7 -85 32 -119 78 -108 37 9 44 19 50 67 l6 43 80 3 c48 2 82 8 87 15 4 7 8 248 8 537 0 429 -3 529 -14 545 -22 32 -27 76 -16 130 6 28 13 64 16 82 l7 32 -114 3 -114 3 -2 388 c-3 421 -3 418 -60 471 -15 14 -40 28 -55 31 -15 4 -28 10 -28 15 0 5 -7 16 -16 24 -12 13 -40 16 -144 16 -126 0 -130 -1 -145 -24z m5 -96 c18 -18 33 -20 139 -20 106 0 121 2 145 21 l28 22 26 -20 c52 -38 52 -40 49 -448 l-2 -380 -245 0 -245 0 -3 375 c-2 399 -1 414 46 450 31 25 37 25 62 0z m603 -907 c-5 -16 -8 -58 -7 -95 l1 -68 -440 0 -439 0 -29 29 c-40 41 -40 91 0 132 l29 29 446 0 446 0 -7 -27z"/>
<path d="M422 1641 c-8 -5 -12 -17 -10 -27 3 -18 20 -19 358 -22 195 -1 365 0 378 3 26 6 30 40 6 49 -24 9 -717 7 -732 -3z"/>
<path d="M417 1563 c-13 -12 -7 -41 9 -47 20 -8 692 -8 722 0 25 7 30 39 6 48 -21 8 -729 8 -737 -1z"/>
<path d="M2597 1790 c-140 -35 -226 -139 -235 -280 -7 -133 51 -234 170 -297 45 -23 65 -28 133 -28 94 1 155 25 217 87 66 66 83 110 83 218 0 108 -16 151 -82 216 -69 69 -195 106 -286 84z m139 -159 c85 -39 114 -149 61 -230 -46 -69 -131 -90 -208 -51 -113 58 -113 220 1 278 54 27 92 28 146 3z"/>
<path d="M3541 1790 c-89 -19 -174 -89 -214 -179 -29 -64 -29 -179 0 -242 30 -66 86 -124 151 -156 118 -58 269 -29 357 69 58 63 80 120 80 208 0 88 -22 145 -80 208 -68 76 -189 113 -294 92z m157 -167 c51 -38 67 -70 67 -133 0 -44 -5 -66 -21 -87 -74 -100 -201 -98 -271 6 -52 77 -13 192 77 230 37 16 117 7 148 -16z"/>
<path d="M1568 1628 c-2 -90 -2 -225 0 -300 l3 -138 70 0 69 0 0 96 0 95 37 -3 c36 -3 40 -7 88 -93 l51 -90 82 -3 c45 -2 82 1 82 5 -1 4 -27 55 -60 113 l-59 104 33 37 c64 70 72 158 21 244 -20 36 -39 53 -78 71 -47 22 -65 24 -194 24 l-142 0 -3 -162z m292 2 c26 -26 25 -58 -2 -87 -18 -19 -32 -23 -85 -23 l-63 0 0 65 0 65 65 0 c52 0 69 -4 85 -20z"/>
<path d="M4265 1778 c-3 -7 -4 -141 -3 -298 l3 -285 73 -3 72 -3 0 156 c0 85 3 155 8 155 4 -1 34 -47 67 -103 40 -68 67 -103 80 -105 16 -2 34 20 85 105 l65 108 5 -155 5 -155 70 0 70 0 3 298 2 297 -74 0 -75 0 -72 -120 c-40 -67 -75 -123 -80 -125 -4 -3 -41 50 -81 117 l-74 123 -72 3 c-52 2 -74 -1 -77 -10z"/>
<path d="M5270 1490 l0 -301 73 3 72 3 0 295 0 295 -72 3 -73 3 0 -301z"/>
<path d="M5820 1490 l0 -300 70 0 70 0 0 115 0 115 110 0 110 0 0 70 0 69 -107 3 -108 3 -3 43 -3 42 115 0 116 0 0 70 0 70 -185 0 -185 0 0 -300z"/>
<path d="M6520 1785 c0 -4 47 -94 105 -201 l105 -194 0 -100 0 -100 70 0 70 0 0 97 0 97 105 197 c58 108 105 200 105 203 0 3 -36 6 -79 6 l-80 0 -56 -105 c-31 -58 -60 -105 -63 -105 -4 0 -33 46 -63 103 l-57 102 -81 3 c-45 2 -81 0 -81 -3z"/>
</g>
</svg>