<svg xmlns="http://www.w3.org/2000/svg" version="1.0" preserveAspectRatio="xMidYMid meet" viewBox="160 22 279.63 156">

    <g transform="translate(0.000000,263.000000) scale(0.100000,-0.100000)" fill="currentColor" stroke="none">
        <path d="M2079 2390 c-46 -24 -105 -92 -120 -137 -13 -42 -19 -37 -48 42 -12 33 -29 69 -37 80 -44 60 -36 -115 12 -239 5 -12 -6 -14 -68 -9 -63 5 -80 2 -116 -16 -23 -12 -42 -25 -42 -29 0 -4 26 -8 58 -9 54 -1 142 -27 142 -42 0 -4 -29 -19 -64 -34 -135 -59 -196 -144 -196 -274 0 -40 4 -73 9 -73 5 0 20 17 32 38 46 74 188 206 204 190 3 -3 -10 -31 -28 -64 -28 -52 -32 -68 -32 -134 0 -83 19 -129 76 -195 40 -45 49 -44 38 3 -12 52 -11 171 2 234 12 56 60 171 76 181 5 3 7 -18 5 -52 -5 -71 18 -158 58 -216 29 -43 97 -101 107 -92 3 3 -6 34 -20 69 -27 66 -61 185 -72 251 -9 53 10 47 68 -21 108 -127 263 -389 356 -603 65 -149 122 -305 114 -313 -9 -8 -106 -7 -119 2 -6 4 -21 29 -33 56 -34 78 -107 172 -168 216 -53 38 -55 40 -27 40 31 0 127 -41 138 -59 16 -25 25 -9 11 18 -21 41 -61 70 -107 77 -48 8 -48 19 -1 35 34 11 35 13 16 20 -12 4 -36 4 -52 -1 -17 -5 -31 -5 -31 0 0 11 51 64 75 77 11 7 17 15 13 18 -15 15 -81 -8 -117 -41 -21 -19 -41 -34 -43 -34 -3 0 -8 19 -12 42 -9 52 -26 39 -33 -26 l-6 -46 -38 6 c-42 7 -49 -1 -21 -23 9 -8 13 -16 7 -19 -54 -23 -117 -85 -102 -100 3 -3 22 -1 43 5 21 6 39 9 41 7 2 -1 -4 -22 -12 -46 -8 -23 -15 -57 -15 -75 0 -36 18 -95 29 -95 5 0 18 33 29 74 12 40 30 84 40 96 l19 23 6 -41 c7 -39 49 -102 68 -102 9 0 5 45 -12 134 -5 27 -7 51 -5 53 10 10 67 -30 120 -84 58 -60 134 -189 120 -203 -5 -5 -40 -10 -79 -12 l-70 -3 0 -30 0 -30 728 -3 727 -2 0 35 0 35 -69 0 c-39 0 -73 4 -76 10 -10 17 57 131 113 192 52 56 118 105 128 96 2 -3 -2 -45 -11 -93 -8 -49 -12 -91 -9 -94 9 -10 63 57 70 86 12 57 15 59 32 28 9 -16 26 -63 37 -103 19 -64 23 -71 35 -57 22 26 25 124 6 169 -9 22 -15 41 -13 42 2 2 20 -1 41 -7 21 -6 40 -8 43 -5 15 15 -48 77 -102 100 -5 3 -2 11 8 19 27 22 20 29 -23 22 -39 -7 -40 -6 -40 23 0 17 -5 43 -11 59 l-12 28 -9 -42 c-10 -48 -21 -54 -40 -22 -17 27 -80 59 -115 59 -28 -1 -27 -1 20 -41 52 -45 64 -75 23 -59 -13 5 -36 5 -51 1 -28 -7 -27 -7 14 -21 46 -15 54 -30 15 -30 -41 0 -93 -30 -119 -68 -14 -20 -23 -37 -21 -39 2 -2 26 10 54 27 27 18 69 34 93 37 l44 6 -40 -30 c-66 -49 -141 -140 -180 -219 l-36 -74 -58 0 c-32 0 -60 3 -64 6 -16 16 136 378 229 548 109 198 273 426 306 426 17 0 -1 -87 -43 -210 -22 -63 -42 -123 -45 -132 -20 -59 100 53 136 127 21 41 25 65 25 137 0 47 3 84 8 81 15 -9 58 -105 74 -166 12 -47 14 -90 10 -177 l-5 -115 38 43 c59 66 75 106 75 192 0 65 -5 84 -32 138 -18 34 -30 62 -27 62 32 0 177 -138 209 -200 21 -40 31 -38 39 10 12 74 -25 180 -81 231 -40 37 -102 75 -145 89 -21 6 -38 15 -38 19 0 14 55 33 129 45 l74 12 -29 19 c-23 16 -46 20 -117 20 -74 0 -86 2 -81 15 32 76 50 239 28 247 -9 3 -56 -88 -79 -152 -5 -17 -11 -12 -31 32 -27 57 -99 127 -140 137 -15 4 -28 5 -30 3 -3 -2 12 -31 31 -63 20 -32 45 -88 55 -123 34 -108 26 -116 -35 -38 -43 55 -124 110 -190 129 -86 25 -207 7 -257 -39 -27 -24 -23 -30 35 -43 113 -27 329 -119 367 -156 13 -13 7 -14 -50 -8 -74 7 -165 -8 -223 -38 -82 -41 -156 -143 -157 -216 l0 -33 71 50 c38 27 103 63 143 80 74 31 251 69 264 57 3 -4 -8 -18 -25 -31 -44 -35 -170 -194 -242 -305 -65 -101 -216 -392 -271 -525 -19 -44 -38 -84 -42 -90 -7 -8 -4 465 4 655 4 81 -20 119 -150 245 -66 63 -127 132 -144 163 -16 28 -36 52 -44 52 -7 0 -25 -21 -38 -47 -15 -29 -72 -95 -141 -163 -133 -131 -159 -172 -157 -245 9 -260 11 -655 5 -655 -5 0 -24 37 -43 83 -48 118 -182 384 -246 488 -71 114 -155 227 -233 312 -71 76 -72 76 65 48 106 -22 219 -72 298 -131 31 -24 58 -41 61 -39 2 2 -1 26 -7 52 -20 94 -112 189 -211 219 -23 7 -83 12 -134 12 -54 0 -89 4 -86 9 11 19 229 116 308 137 44 12 91 26 105 32 l24 10 -24 19 c-83 66 -217 71 -333 13 -47 -25 -120 -88 -150 -133 -24 -36 -32 -19 -17 36 19 68 46 129 80 179 24 37 26 44 12 44 -9 -1 -33 -10 -53 -20z m1047 -488 c73 -70 139 -141 148 -159 9 -18 16 -55 16 -83 l0 -50 -292 2 -293 3 -3 43 c-5 69 27 121 135 217 53 47 108 101 122 120 14 19 28 34 31 35 3 0 64 -57 136 -128z m144 -357 c0 -13 -37 -15 -275 -15 -238 0 -275 2 -275 15 0 13 37 15 275 15 238 0 275 -2 275 -15z m-2 -342 l-3 -278 -60 0 -60 0 -5 167 c-5 147 -8 171 -26 195 -69 93 -169 92 -238 -1 -19 -24 -22 -46 -26 -194 l-5 -167 -60 0 -60 0 -3 278 -2 277 275 0 275 0 -2 -277z"/>
    </g>
</svg>